<svg xmlns="http://www.w3.org/2000/svg" viewBox="0 0 64 64" fill="none">
  <defs>
    <radialGradient id="glowKeter" cx="50%" cy="50%" r="60%">
      <stop offset="0%" stop-color="#DB2777" stop-opacity="0.7"/>
      <stop offset="70%" stop-color="#DB2777" stop-opacity="0.2"/>
      <stop offset="100%" stop-color="#DB2777" stop-opacity="0"/>
    </radialGradient>
    <radialGradient id="glowTiferet" cx="50%" cy="50%" r="60%">
      <stop offset="0%" stop-color="#16A34A" stop-opacity="0.7"/>
      <stop offset="70%" stop-color="#16A34A" stop-opacity="0.2"/>
      <stop offset="100%" stop-color="#16A34A" stop-opacity="0"/>
    </radialGradient>
  </defs>

  <!-- Fondo circular oscuro -->
  <circle cx="32" cy="32" r="30" fill="#140a26"/>

  <!-- Conexiones del Árbol de la Vida (simplificadas y legibles a 16px) -->
  <g stroke="#a855f7" stroke-width="1.6" stroke-linecap="round" stroke-linejoin="round" opacity="0.9">
    <!-- Columna central: Keter -> (Daat) -> Tiferet -> Yesod -> Malkut -->
    <path d="M32 8 L32 56"/>
    <!-- Columnas laterales -->
    <path d="M20 16 L20 44"/>
    <path d="M44 16 L44 44"/>
    <!-- Horizontales principales -->
    <path d="M20 16 L44 16"/>
    <path d="M20 28 L44 28"/>
    <path d="M20 44 L44 44"/>
    <!-- Diagonales hacia Tiferet -->
    <path d="M20 16 L32 36"/>
    <path d="M44 16 L32 36"/>
    <path d="M20 28 L32 36"/>
    <path d="M44 28 L32 36"/>
    <!-- Diagonales hacia Yesod -->
    <path d="M20 44 L32 52"/>
    <path d="M44 44 L32 52"/>
  </g>

  <!-- Sefirot (nodos) con colores y resaltado de Tiferet/Keter -->
  <g>
    <!-- Halos de resaltado para Keter y Tiferet -->
    <circle cx="32" cy="8" r="7" fill="url(#glowKeter)"/>
    <circle cx="32" cy="36" r="7" fill="url(#glowTiferet)"/>

    <!-- Keter (magenta) -->
    <circle cx="32" cy="8" r="3.6" fill="#DB2777" stroke="#FDE68A" stroke-width="1"/>
    <!-- Jojmá (violeta) / Biná (azul) -->
    <circle cx="20" cy="16" r="3.2" fill="#7C3AED" stroke="#FDE68A" stroke-width="1"/>
    <circle cx="44" cy="16" r="3.2" fill="#2563EB" stroke="#FDE68A" stroke-width="1"/>
    <!-- Daat (dorado) -->
    <circle cx="32" cy="22" r="2.2" fill="#F59E0B"/>
    <!-- Jesed (verde) / Guevurá (verde) -->
    <circle cx="20" cy="28" r="3.2" fill="#16A34A" stroke="#FDE68A" stroke-width="1"/>
    <circle cx="44" cy="28" r="3.2" fill="#16A34A" stroke="#FDE68A" stroke-width="1"/>
    <!-- Tiferet (verde) -->
    <circle cx="32" cy="36" r="3.4" fill="#16A34A" stroke="#FDE68A" stroke-width="1"/>
    <!-- Netsaj (amarillo) / Hod (amarillo) -->
    <circle cx="20" cy="44" r="3.2" fill="#FCD34D" stroke="#FDE68A" stroke-width="1"/>
    <circle cx="44" cy="44" r="3.2" fill="#FCD34D" stroke="#FDE68A" stroke-width="1"/>
    <!-- Yesod (naranja) / Malkut (rojo) -->
    <circle cx="32" cy="52" r="3.2" fill="#EA580C" stroke="#FDE68A" stroke-width="1"/>
    <circle cx="32" cy="60" r="3.2" fill="#DC2626" stroke="#FDE68A" stroke-width="1"/>
  </g>
</svg>
