<svg xmlns="http://www.w3.org/2000/svg" viewBox="0 0 64 64" fill="none">
  <defs>
    <!-- Canopy gradients (emoji-like greens) -->
    <radialGradient id="canopyLight" cx="32" cy="22" r="20" gradientUnits="userSpaceOnUse">
      <stop offset="0" stop-color="#34d399"/>
      <stop offset="1" stop-color="#16a34a"/>
    </radialGradient>
    <linearGradient id="trunk" x1="0" x2="0" y1="0" y2="1">
      <stop offset="0" stop-color="#8B5E3C"/>
      <stop offset="1" stop-color="#6B4423"/>
    </linearGradient>
    <linearGradient id="shadow" x1="0" x2="1" y1="0" y2="0">
      <stop offset="0" stop-color="#14532d" stop-opacity="0.0"/>
      <stop offset="1" stop-color="#14532d" stop-opacity="0.25"/>
    </linearGradient>
  </defs>

  <!-- Circular backdrop to match site palette -->
  <circle cx="32" cy="32" r="30" fill="#140a26"/>

  <!-- Ground arc subtle -->
  <path d="M14 50 C24 46, 40 46, 50 50" fill="none" stroke="#20113a" stroke-width="4" stroke-linecap="round"/>

  <!-- Emoji-like canopy formed by overlapping circles -->
  <g>
    <circle cx="32" cy="26" r="16" fill="url(#canopyLight)"/>
    <circle cx="22" cy="30" r="10" fill="url(#canopyLight)"/>
    <circle cx="42" cy="30" r="10" fill="url(#canopyLight)"/>
    <!-- Right-side shading to add volume -->
    <path d="M32 10 a16 16 0 1 0 0 32 a16 16 0 0 0 0-32z" fill="url(#shadow)"/>
  </g>

  <!-- Trunk (rounded) -->
  <rect x="28" y="36" width="8" height="14" rx="3" fill="url(#trunk)"/>
  <!-- Small roots -->
  <path d="M28 50 C26 51, 25 53, 24 55" stroke="#6B4423" stroke-width="2" stroke-linecap="round"/>
  <path d="M36 50 C38 51, 39 53, 40 55" stroke="#6B4423" stroke-width="2" stroke-linecap="round"/>

  <!-- Canopy highlight -->
  <circle cx="26" cy="22" r="4" fill="#86efac" fill-opacity="0.6"/>
</svg>
