<svg xmlns="http://www.w3.org/2000/svg" viewBox="0 0 64 64" fill="none">
  <!-- Fondo circular oscuro -->
  <circle cx="32" cy="32" r="30" fill="#140a26"/>

  <!-- Conexiones del Árbol de la Vida (simplificadas y legibles a 16px) -->
  <g stroke="#a855f7" stroke-width="1.6" stroke-linecap="round" stroke-linejoin="round" opacity="0.9">
    <!-- Columna central: Keter -> (Daat) -> Tiferet -> Yesod -> Malkut -->
    <path d="M32 8 L32 56"/>
    <!-- Columnas laterales -->
    <path d="M20 16 L20 44"/>
    <path d="M44 16 L44 44"/>
    <!-- Horizontales principales -->
    <path d="M20 16 L44 16"/>
    <path d="M20 28 L44 28"/>
    <path d="M20 44 L44 44"/>
    <!-- Diagonales hacia Tiferet -->
    <path d="M20 16 L32 36"/>
    <path d="M44 16 L32 36"/>
    <path d="M20 28 L32 36"/>
    <path d="M44 28 L32 36"/>
    <!-- Diagonales hacia Yesod -->
    <path d="M20 44 L32 52"/>
    <path d="M44 44 L32 52"/>
  </g>

  <!-- Sefirot (nodos) -->
  <g>
    <!-- Keter -->
    <circle cx="32" cy="8" r="3.6" fill="#140a26" stroke="#FCD34D" stroke-width="1.4"/>
    <!-- Jojmá / Biná -->
    <circle cx="20" cy="16" r="3.2" fill="#140a26" stroke="#FCD34D" stroke-width="1.4"/>
    <circle cx="44" cy="16" r="3.2" fill="#140a26" stroke="#FCD34D" stroke-width="1.4"/>
    <!-- Daat (más pequeño) -->
    <circle cx="32" cy="22" r="2.2" fill="#F59E0B"/>
    <!-- Jesed / Guevurá -->
    <circle cx="20" cy="28" r="3.2" fill="#140a26" stroke="#FCD34D" stroke-width="1.4"/>
    <circle cx="44" cy="28" r="3.2" fill="#140a26" stroke="#FCD34D" stroke-width="1.4"/>
    <!-- Tiferet -->
    <circle cx="32" cy="36" r="3.4" fill="#140a26" stroke="#FCD34D" stroke-width="1.4"/>
    <!-- Netsaj / Hod -->
    <circle cx="20" cy="44" r="3.2" fill="#140a26" stroke="#FCD34D" stroke-width="1.4"/>
    <circle cx="44" cy="44" r="3.2" fill="#140a26" stroke="#FCD34D" stroke-width="1.4"/>
    <!-- Yesod / Malkut -->
    <circle cx="32" cy="52" r="3.2" fill="#140a26" stroke="#FCD34D" stroke-width="1.4"/>
    <circle cx="32" cy="60" r="3.2" fill="#140a26" stroke="#FCD34D" stroke-width="1.4"/>
  </g>
</svg>
